<svg width="242" height="47" viewBox="0 0 242 47" fill="none" xmlns="http://www.w3.org/2000/svg">
<path d="M0.953125 46V0.181817H20.8196C24.3097 0.181817 27.2404 0.651633 29.6119 1.59126C31.9982 2.53089 33.7955 3.85831 35.0036 5.57351C36.2266 7.28871 36.8381 9.30966 36.8381 11.6364C36.8381 13.3217 36.4652 14.858 35.7195 16.245C34.9886 17.6321 33.9595 18.7955 32.6321 19.7351C31.3047 20.6598 29.7536 21.3011 27.9787 21.6591V22.1065C29.9474 22.1811 31.7372 22.6808 33.348 23.6055C34.9588 24.5153 36.2415 25.7756 37.196 27.3864C38.1506 28.9822 38.6278 30.8615 38.6278 33.0241C38.6278 35.5298 37.9716 37.7596 36.6591 39.7134C35.3615 41.6673 33.5121 43.2035 31.1108 44.3221C28.7095 45.4407 25.8459 46 22.5199 46H0.953125ZM13.392 36.0668H19.2088C21.2969 36.0668 22.8629 35.679 23.907 34.9034C24.951 34.1129 25.473 32.9496 25.473 31.4134C25.473 30.3395 25.2269 29.4297 24.7347 28.6839C24.2425 27.9382 23.5415 27.3714 22.6317 26.9837C21.7369 26.5959 20.6555 26.402 19.3878 26.402H13.392V36.0668ZM13.392 18.706H18.4929C19.5817 18.706 20.5437 18.5344 21.3789 18.1914C22.2141 17.8484 22.8629 17.3562 23.3253 16.7148C23.8026 16.0586 24.0412 15.2607 24.0412 14.321C24.0412 12.9041 23.5341 11.8228 22.5199 11.0771C21.5057 10.3164 20.223 9.93608 18.6719 9.93608H13.392V18.706ZM70.1502 0.181817H82.5891V29.5341C82.5891 33.0241 81.7539 36.0444 80.0835 38.5948C78.4279 41.1303 76.1161 43.0916 73.1481 44.4787C70.18 45.8509 66.7347 46.5369 62.8121 46.5369C58.8597 46.5369 55.3995 45.8509 52.4315 44.4787C49.4634 43.0916 47.1516 41.1303 45.4961 38.5948C43.8555 36.0444 43.0352 33.0241 43.0352 29.5341V0.181817H55.4741V28.4602C55.4741 29.8771 55.7873 31.1449 56.4137 32.2635C57.0401 33.3672 57.9052 34.2322 59.0089 34.8587C60.1275 35.4851 61.3952 35.7983 62.8121 35.7983C64.244 35.7983 65.5117 35.4851 66.6154 34.8587C67.7191 34.2322 68.5842 33.3672 69.2106 32.2635C69.837 31.1449 70.1502 29.8771 70.1502 28.4602V0.181817ZM88.501 46V0.181817H108.367C111.858 0.181817 114.788 0.651633 117.16 1.59126C119.546 2.53089 121.343 3.85831 122.551 5.57351C123.774 7.28871 124.386 9.30966 124.386 11.6364C124.386 13.3217 124.013 14.858 123.267 16.245C122.536 17.6321 121.507 18.7955 120.18 19.7351C118.853 20.6598 117.301 21.3011 115.527 21.6591V22.1065C117.495 22.1811 119.285 22.6808 120.896 23.6055C122.507 24.5153 123.789 25.7756 124.744 27.3864C125.698 28.9822 126.176 30.8615 126.176 33.0241C126.176 35.5298 125.519 37.7596 124.207 39.7134C122.909 41.6673 121.06 43.2035 118.659 44.3221C116.257 45.4407 113.394 46 110.068 46H88.501ZM100.94 36.0668H106.757C108.845 36.0668 110.411 35.679 111.455 34.9034C112.499 34.1129 113.021 32.9496 113.021 31.4134C113.021 30.3395 112.775 29.4297 112.283 28.6839C111.79 27.9382 111.089 27.3714 110.18 26.9837C109.285 26.5959 108.203 26.402 106.936 26.402H100.94V36.0668ZM100.94 18.706H106.041C107.13 18.706 108.092 18.5344 108.927 18.1914C109.762 17.8484 110.411 17.3562 110.873 16.7148C111.35 16.0586 111.589 15.2607 111.589 14.321C111.589 12.9041 111.082 11.8228 110.068 11.0771C109.054 10.3164 107.771 9.93608 106.22 9.93608H100.94V18.706ZM130.583 46V0.181817H150.449C153.94 0.181817 156.87 0.651633 159.242 1.59126C161.628 2.53089 163.425 3.85831 164.633 5.57351C165.856 7.28871 166.468 9.30966 166.468 11.6364C166.468 13.3217 166.095 14.858 165.349 16.245C164.619 17.6321 163.589 18.7955 162.262 19.7351C160.935 20.6598 159.383 21.3011 157.609 21.6591V22.1065C159.577 22.1811 161.367 22.6808 162.978 23.6055C164.589 24.5153 165.871 25.7756 166.826 27.3864C167.78 28.9822 168.258 30.8615 168.258 33.0241C168.258 35.5298 167.601 37.7596 166.289 39.7134C164.991 41.6673 163.142 43.2035 160.741 44.3221C158.339 45.4407 155.476 46 152.15 46H130.583ZM143.022 36.0668H148.839C150.927 36.0668 152.493 35.679 153.537 34.9034C154.581 34.1129 155.103 32.9496 155.103 31.4134C155.103 30.3395 154.857 29.4297 154.365 28.6839C153.872 27.9382 153.171 27.3714 152.262 26.9837C151.367 26.5959 150.285 26.402 149.018 26.402H143.022V36.0668ZM143.022 18.706H148.123C149.212 18.706 150.174 18.5344 151.009 18.1914C151.844 17.8484 152.493 17.3562 152.955 16.7148C153.432 16.0586 153.671 15.2607 153.671 14.321C153.671 12.9041 153.164 11.8228 152.15 11.0771C151.136 10.3164 149.853 9.93608 148.302 9.93608H143.022V18.706ZM172.665 46V0.181817H185.104V35.9773H203.628V46H172.665ZM208.656 46V0.181817H241.678V10.2045H221.095V18.0795H239.977V28.1023H221.095V35.9773H241.588V46H208.656Z" fill="#206FE6"/>
</svg>
