<svg width="327" height="60" viewBox="0 0 327 60" fill="none" xmlns="http://www.w3.org/2000/svg">
<path d="M26.652 15.5C26.5327 14.0085 25.9734 12.8452 24.9741 12.0099C23.9897 11.1747 22.4908 10.7571 20.4773 10.7571C19.1946 10.7571 18.1431 10.9137 17.3228 11.2269C16.5174 11.5252 15.9208 11.9354 15.533 12.4574C15.1452 12.9794 14.9439 13.576 14.929 14.2472C14.8991 14.799 14.9961 15.2986 15.2198 15.7461C15.4585 16.1786 15.8313 16.5739 16.3384 16.9318C16.8455 17.2749 17.4943 17.5881 18.2848 17.8714C19.0753 18.1548 20.0149 18.4084 21.1037 18.6321L24.8622 19.4375C27.3977 19.9744 29.5678 20.6829 31.3725 21.5629C33.1772 22.4428 34.6538 23.4794 35.8022 24.6726C36.9506 25.8509 37.7933 27.1783 38.3303 28.6548C38.8821 30.1314 39.1655 31.7422 39.1804 33.4872C39.1655 36.5 38.4123 39.0504 36.9208 41.1385C35.4293 43.2266 33.2965 44.815 30.5224 45.9038C27.7631 46.9925 24.4446 47.5369 20.5668 47.5369C16.5845 47.5369 13.1094 46.9478 10.1413 45.7695C7.18821 44.5913 4.89134 42.7791 3.25071 40.3331C1.625 37.8722 0.804688 34.7251 0.789773 30.892H12.6023C12.6768 32.294 13.0273 33.4723 13.6538 34.4268C14.2802 35.3814 15.1602 36.1048 16.2937 36.5969C17.4421 37.0891 18.8068 37.3352 20.3878 37.3352C21.7152 37.3352 22.8263 37.1712 23.7212 36.843C24.6161 36.5149 25.2947 36.06 25.7571 35.4783C26.2195 34.8967 26.4581 34.233 26.473 33.4872C26.4581 32.7862 26.2269 32.1747 25.7795 31.6527C25.3469 31.1158 24.631 30.6385 23.6317 30.2209C22.6325 29.7884 21.2827 29.3857 19.5824 29.0128L15.0185 28.0284C10.9616 27.1484 7.76243 25.6793 5.42081 23.6211C3.09411 21.5479 1.93821 18.7216 1.95312 15.142C1.93821 12.2337 2.71378 9.6907 4.27983 7.51314C5.8608 5.32067 8.04581 3.61292 10.8349 2.38991C13.6389 1.1669 16.853 0.555396 20.4773 0.555396C24.1761 0.555396 27.3754 1.17436 30.0749 2.41229C32.7745 3.65021 34.8551 5.39524 36.3168 7.64737C37.7933 9.88459 38.5391 12.5021 38.554 15.5H26.652ZM88.2985 24.0909C88.2985 29.1918 87.3066 33.4947 85.323 36.9996C83.3393 40.4897 80.6621 43.1371 77.2914 44.9418C73.9206 46.7315 70.1621 47.6264 66.0158 47.6264C61.8397 47.6264 58.0662 46.7241 54.6955 44.9194C51.3397 43.0998 48.6699 40.445 46.6863 36.9549C44.7175 33.4499 43.7331 29.1619 43.7331 24.0909C43.7331 18.9901 44.7175 14.6946 46.6863 11.2045C48.6699 7.69957 51.3397 5.0522 54.6955 3.26243C58.0662 1.45774 61.8397 0.555396 66.0158 0.555396C70.1621 0.555396 73.9206 1.45774 77.2914 3.26243C80.6621 5.0522 83.3393 7.69957 85.323 11.2045C87.3066 14.6946 88.2985 18.9901 88.2985 24.0909ZM75.5016 24.0909C75.5016 21.3466 75.1362 19.0348 74.4054 17.1555C73.6895 15.2614 72.623 13.8295 71.2061 12.8601C69.8042 11.8757 68.074 11.3835 66.0158 11.3835C63.9576 11.3835 62.22 11.8757 60.8031 12.8601C59.4011 13.8295 58.3347 15.2614 57.6039 17.1555C56.888 19.0348 56.53 21.3466 56.53 24.0909C56.53 26.8352 56.888 29.1545 57.6039 31.0487C58.3347 32.9279 59.4011 34.3597 60.8031 35.3441C62.22 36.3136 63.9576 36.7983 66.0158 36.7983C68.074 36.7983 69.8042 36.3136 71.2061 35.3441C72.623 34.3597 73.6895 32.9279 74.4054 31.0487C75.1362 29.1545 75.5016 26.8352 75.5016 24.0909ZM94.0537 47V1.18182H126.27V11.2045H106.493V19.0795H124.301V29.1023H106.493V47H94.0537ZM137.025 47H123.602L138.725 1.18182H155.728L170.852 47H157.428L147.406 13.7997H147.048L137.025 47ZM134.519 28.9233H159.755V38.2301H134.519V28.9233ZM205.501 23.8224H194.136C194.076 23.1214 193.83 22.5174 193.397 22.0103C192.965 21.5032 192.405 21.1154 191.719 20.8469C191.048 20.5636 190.302 20.4219 189.482 20.4219C188.423 20.4219 187.513 20.6158 186.753 21.0036C185.992 21.3913 185.619 21.9432 185.634 22.6591C185.619 23.1662 185.835 23.636 186.283 24.0685C186.745 24.5011 187.633 24.8366 188.945 25.0753L195.925 26.3281C199.445 26.9695 202.063 28.0508 203.778 29.5721C205.508 31.0785 206.381 33.0994 206.396 35.6349C206.381 38.081 205.65 40.2063 204.203 42.011C202.771 43.8008 200.81 45.1879 198.319 46.1722C195.843 47.1417 193.017 47.6264 189.84 47.6264C184.59 47.6264 180.481 46.5526 177.513 44.4048C174.56 42.2571 172.912 39.4233 172.569 35.9034H184.829C184.993 36.9922 185.53 37.8349 186.44 38.4315C187.364 39.0131 188.528 39.304 189.93 39.304C191.063 39.304 191.995 39.1101 192.726 38.7223C193.472 38.3345 193.852 37.7827 193.867 37.0668C193.852 36.4105 193.524 35.8885 192.883 35.5007C192.256 35.1129 191.272 34.7997 189.93 34.5611L183.844 33.4872C180.339 32.8757 177.714 31.7124 175.969 29.9972C174.224 28.282 173.359 26.0746 173.374 23.375C173.359 20.9886 173.986 18.9677 175.253 17.3121C176.536 15.6417 178.363 14.3739 180.735 13.5089C183.121 12.6289 185.947 12.1889 189.214 12.1889C194.18 12.1889 198.095 13.218 200.959 15.2763C203.838 17.3345 205.351 20.1832 205.501 23.8224ZM223.477 27.6705V47H211.127V1.18182H223.029V19.169H223.387C224.163 16.9766 225.453 15.2688 227.258 14.0458C229.062 12.8079 231.232 12.1889 233.768 12.1889C236.199 12.1889 238.309 12.7408 240.099 13.8445C241.904 14.9482 243.298 16.4695 244.283 18.4084C245.282 20.3473 245.774 22.5696 245.759 25.0753V47H233.41V27.6705C233.425 25.9702 233 24.6353 232.135 23.6658C231.285 22.6964 230.069 22.2116 228.488 22.2116C227.489 22.2116 226.609 22.4354 225.848 22.8828C225.102 23.3153 224.521 23.9418 224.103 24.7621C223.7 25.5675 223.492 26.5369 223.477 27.6705ZM268.411 47.6264C264.682 47.6264 261.491 46.8881 258.836 45.4116C256.181 43.9201 254.145 41.8469 252.728 39.1921C251.311 36.5224 250.603 33.4276 250.603 29.9077C250.603 26.3878 251.311 23.3004 252.728 20.6456C254.145 17.9759 256.181 15.9027 258.836 14.4261C261.491 12.9347 264.682 12.1889 268.411 12.1889C272.14 12.1889 275.332 12.9347 277.986 14.4261C280.641 15.9027 282.677 17.9759 284.094 20.6456C285.511 23.3004 286.219 26.3878 286.219 29.9077C286.219 33.4276 285.511 36.5224 284.094 39.1921C282.677 41.8469 280.641 43.9201 277.986 45.4116C275.332 46.8881 272.14 47.6264 268.411 47.6264ZM268.501 38.4986C269.545 38.4986 270.447 38.1481 271.208 37.4471C271.968 36.7461 272.557 35.7468 272.975 34.4492C273.393 33.1516 273.601 31.608 273.601 29.8182C273.601 28.0135 273.393 26.4698 272.975 25.1871C272.557 23.8896 271.968 22.8903 271.208 22.1893C270.447 21.4883 269.545 21.1378 268.501 21.1378C267.397 21.1378 266.45 21.4883 265.659 22.1893C264.869 22.8903 264.265 23.8896 263.847 25.1871C263.43 26.4698 263.221 28.0135 263.221 29.8182C263.221 31.608 263.43 33.1516 263.847 34.4492C264.265 35.7468 264.869 36.7461 265.659 37.4471C266.45 38.1481 267.397 38.4986 268.501 38.4986ZM291.231 59.8864V12.6364H303.491V18.6321H303.759C304.207 17.4687 304.863 16.4023 305.728 15.4329C306.593 14.4485 307.667 13.6655 308.949 13.0838C310.232 12.4872 311.724 12.1889 313.424 12.1889C315.691 12.1889 317.846 12.793 319.889 14.0011C321.948 15.2092 323.618 17.1108 324.901 19.706C326.198 22.3011 326.847 25.6719 326.847 29.8182C326.847 33.7855 326.228 37.0742 324.99 39.6843C323.767 42.2944 322.127 44.2408 320.068 45.5234C318.025 46.8061 315.78 47.4474 313.334 47.4474C311.724 47.4474 310.284 47.1864 309.017 46.6644C307.764 46.1275 306.69 45.4041 305.795 44.4943C304.915 43.5696 304.236 42.5256 303.759 41.3622H303.58V59.8864H291.231ZM303.312 29.8182C303.312 31.4886 303.528 32.9354 303.96 34.1584C304.408 35.3665 305.034 36.3061 305.84 36.9773C306.66 37.6335 307.637 37.9616 308.771 37.9616C309.904 37.9616 310.866 37.641 311.657 36.9996C312.462 36.3434 313.073 35.4112 313.491 34.2031C313.924 32.9801 314.14 31.5185 314.14 29.8182C314.14 28.1179 313.924 26.6637 313.491 25.4556C313.073 24.2326 312.462 23.3004 311.657 22.6591C310.866 22.0028 309.904 21.6747 308.771 21.6747C307.637 21.6747 306.66 22.0028 305.84 22.6591C305.034 23.3004 304.408 24.2326 303.96 25.4556C303.528 26.6637 303.312 28.1179 303.312 29.8182Z" fill="#206FE6"/>
</svg>
