<svg width="126" height="126" viewBox="0 0 126 126" fill="none" xmlns="http://www.w3.org/2000/svg">
<circle cx="63" cy="63" r="63" fill="url(#paint0_linear_2164_10)"/>
<path d="M73.2905 51C73.1011 48.6326 72.2133 46.786 70.6271 45.4602C69.0646 44.1345 66.6854 43.4716 63.4893 43.4716C61.4534 43.4716 59.7843 43.7202 58.4822 44.2173C57.2038 44.6908 56.2569 45.3419 55.6413 46.1705C55.0258 46.9991 54.7062 47.946 54.6825 49.0114C54.6352 49.8873 54.7891 50.6804 55.1442 51.3906C55.523 52.0772 56.1148 52.7045 56.9197 53.2727C57.7247 53.8172 58.7545 54.3144 60.0092 54.7642C61.264 55.214 62.7554 55.6165 64.4837 55.9716L70.4496 57.25C74.4742 58.1023 77.9188 59.2268 80.7834 60.6236C83.648 62.0204 85.9917 63.6657 87.8146 65.5597C89.6375 67.4299 90.9751 69.5369 91.8274 71.8807C92.7034 74.2244 93.1532 76.7812 93.1768 79.5511C93.1532 84.3333 91.9576 88.3816 89.5902 91.696C87.2228 95.0104 83.8374 97.5317 79.4339 99.2599C75.0542 100.988 69.7867 101.852 63.6314 101.852C57.3104 101.852 51.7943 100.917 47.0831 99.0469C42.3956 97.1766 38.7498 94.3002 36.1456 90.4176C33.5651 86.5114 32.263 81.5161 32.2393 75.4318H50.9893C51.1077 77.6572 51.6641 79.5275 52.6584 81.0426C53.6527 82.5578 55.0495 83.706 56.8487 84.4872C58.6716 85.2685 60.8378 85.6591 63.3473 85.6591C65.4543 85.6591 67.218 85.3987 68.6385 84.8778C70.059 84.357 71.1361 83.6349 71.87 82.7116C72.6039 81.7884 72.9827 80.7348 73.0064 79.5511C72.9827 78.4384 72.6158 77.4678 71.9055 76.6392C71.219 75.7869 70.0826 75.0294 68.4964 74.3665C66.9103 73.6799 64.7678 73.0407 62.0689 72.4489L54.8246 70.8864C48.3852 69.4896 43.3071 67.1577 39.5902 63.8906C35.897 60.5999 34.0623 56.1136 34.0859 50.4318C34.0623 45.8153 35.2933 41.7789 37.7791 38.3224C40.2886 34.8423 43.7569 32.1316 48.1839 30.1903C52.6347 28.2491 57.7365 27.2784 63.4893 27.2784C69.3606 27.2784 74.4387 28.2609 78.7237 30.2259C83.0088 32.1908 86.3113 34.9607 88.6314 38.5355C90.9751 42.0866 92.1589 46.2415 92.1825 51H73.2905Z" fill="white"/>
<defs>
<linearGradient id="paint0_linear_2164_10" x1="22" y1="20" x2="101.5" y2="114" gradientUnits="userSpaceOnUse">
<stop offset="0.442308" stop-color="#206FE6"/>
<stop offset="1" stop-color="#255192"/>
</linearGradient>
</defs>
</svg>
