<svg width="1305" height="1305" viewBox="0 0 1305 1305" fill="none" xmlns="http://www.w3.org/2000/svg">
<path d="M652.5 108.75C352.35 108.75 108.75 352.35 108.75 652.5C108.75 952.65 352.35 1196.25 652.5 1196.25C952.65 1196.25 1196.25 952.65 1196.25 652.5C1196.25 352.35 952.65 108.75 652.5 108.75ZM904.8 478.5C896.644 564.412 861.3 773.213 843.356 869.456C835.744 910.238 820.519 923.831 806.381 925.463C774.844 928.181 750.919 904.8 720.469 884.681C672.619 853.144 645.431 833.569 599.213 803.119C545.381 767.775 580.181 748.2 611.175 716.663C619.331 708.506 758.531 581.812 761.25 570.394C761.627 568.665 761.576 566.87 761.105 565.163C760.63 563.459 759.746 561.893 758.531 560.606C755.269 557.888 750.919 558.975 747.113 559.519C742.219 560.606 666.094 611.175 517.65 711.225C495.9 725.906 476.325 733.519 458.925 732.975C439.35 732.431 402.375 722.1 374.644 712.856C340.388 701.981 313.744 696 315.919 676.969C317.006 667.181 330.6 657.394 356.156 647.063C514.931 578.006 620.419 532.331 673.162 510.581C824.325 447.506 855.319 436.631 875.981 436.631C880.331 436.631 890.662 437.719 897.188 443.156C902.625 447.506 904.256 453.488 904.8 457.838C904.256 461.1 905.344 470.887 904.8 478.5Z" fill="#0C56C5"/>
</svg>
