<svg width="1305" height="1305" viewBox="0 0 1305 1305" fill="none" xmlns="http://www.w3.org/2000/svg">
<path d="M1035.84 266.982C985.986 216.637 926.604 176.718 861.166 149.552C795.724 122.386 725.529 108.516 654.675 108.751C357.788 108.751 115.819 350.72 115.819 647.607C115.819 742.763 140.831 835.2 187.594 916.763L111.469 1196.25L396.938 1121.21C475.781 1164.17 564.412 1187.01 654.675 1187.01C951.562 1187.01 1193.53 945.038 1193.53 648.15C1193.53 504.056 1137.53 368.663 1035.84 266.982ZM654.675 1095.66C574.2 1095.66 495.356 1073.91 426.3 1033.13L409.988 1023.34L240.338 1067.93L285.469 902.625L274.594 885.769C229.873 814.378 206.132 731.848 206.081 647.607C206.081 400.744 407.269 199.557 654.131 199.557C773.756 199.557 886.312 246.32 970.594 331.145C1012.33 372.679 1045.41 422.088 1067.9 476.507C1090.4 530.925 1101.87 589.266 1101.64 648.15C1102.72 895.013 901.537 1095.66 654.675 1095.66ZM900.45 760.707C886.856 754.182 820.519 721.557 808.556 716.663C796.05 712.313 787.35 710.138 778.106 723.188C768.862 736.782 743.306 767.232 735.694 775.932C728.081 785.175 719.925 786.263 706.331 779.194C692.737 772.669 649.238 757.988 598.125 712.313C557.888 676.425 531.244 632.381 523.088 618.788C515.475 605.194 522 598.125 529.069 591.057C535.05 585.075 542.662 575.288 549.187 567.675C555.712 560.063 558.431 554.082 562.781 545.382C567.131 536.138 564.956 528.525 561.694 522C558.431 515.475 531.244 449.138 520.369 421.95C509.494 395.85 498.075 399.113 489.919 398.569H463.819C454.575 398.569 440.438 401.832 427.931 415.425C415.969 429.019 381.169 461.644 381.169 527.981C381.169 594.319 429.562 658.482 436.087 667.182C442.612 676.425 531.244 812.363 666.094 870.544C698.175 884.681 723.187 892.838 742.762 898.819C774.844 909.15 804.206 907.519 827.587 904.256C853.687 900.45 907.519 871.631 918.394 840.094C929.812 808.556 929.812 781.913 926.006 775.932C922.2 769.95 914.044 767.232 900.45 760.707Z" fill="#0C56C5"/>
</svg>
