<svg width="30" height="30" viewBox="0 0 30 30" fill="none" xmlns="http://www.w3.org/2000/svg">
<path d="M25.575 4.36508C24.1996 2.97624 22.5615 1.87503 20.7563 1.12562C18.951 0.376219 17.0146 -0.00639475 15.06 8.08427e-05C6.87 8.08427e-05 0.194997 6.67508 0.194997 14.8651C0.194997 17.4901 0.884997 20.0401 2.175 22.2901L0.0749969 30.0001L7.95 27.9301C10.125 29.1151 12.57 29.7451 15.06 29.7451C23.25 29.7451 29.925 23.0701 29.925 14.8801C29.925 10.9051 28.38 7.17008 25.575 4.36508ZM15.06 27.2251C12.84 27.2251 10.665 26.6251 8.76 25.5001L8.31 25.2301L3.63 26.4601L4.875 21.9001L4.575 21.4351C3.34132 19.4657 2.68638 17.189 2.685 14.8651C2.685 8.05508 8.235 2.50508 15.045 2.50508C18.345 2.50508 21.45 3.79508 23.775 6.13508C24.9264 7.28088 25.8389 8.6439 26.4594 10.1451C27.08 11.6463 27.3963 13.2557 27.39 14.8801C27.42 21.6901 21.87 27.2251 15.06 27.2251ZM21.84 17.9851C21.465 17.8051 19.635 16.9051 19.305 16.7701C18.96 16.6501 18.72 16.5901 18.465 16.9501C18.21 17.3251 17.505 18.1651 17.295 18.4051C17.085 18.6601 16.86 18.6901 16.485 18.4951C16.11 18.3151 14.91 17.9101 13.5 16.6501C12.39 15.6601 11.655 14.4451 11.43 14.0701C11.22 13.6951 11.4 13.5001 11.595 13.3051C11.76 13.1401 11.97 12.8701 12.15 12.6601C12.33 12.4501 12.405 12.2851 12.525 12.0451C12.645 11.7901 12.585 11.5801 12.495 11.4001C12.405 11.2201 11.655 9.39008 11.355 8.64008C11.055 7.92008 10.74 8.01008 10.515 7.99508H9.795C9.54 7.99508 9.15 8.08508 8.805 8.46008C8.475 8.83508 7.515 9.73508 7.515 11.5651C7.515 13.3951 8.85 15.1651 9.03 15.4051C9.21 15.6601 11.655 19.4101 15.375 21.0151C16.26 21.4051 16.95 21.6301 17.49 21.7951C18.375 22.0801 19.185 22.0351 19.83 21.9451C20.55 21.8401 22.035 21.0451 22.335 20.1751C22.65 19.3051 22.65 18.5701 22.545 18.4051C22.44 18.2401 22.215 18.1651 21.84 17.9851Z" fill="#0C56C5"/>
</svg>
